<svg xmlns="http://www.w3.org/2000/svg" width="127.316" height="112.389" viewBox="0 0 127.316 112.389">
  <g id="MainLogoMobile" transform="translate(-1082.117 -103.339)">
    <path id="Union_2" data-name="Union 2" d="M94.484,84.448a15.084,15.084,0,0,1-5.324-4.642,21.687,21.687,0,0,1-3.652-10.231,9.379,9.379,0,0,0-3.2-5.746,15.8,15.8,0,0,0-2.758-2.042,15.907,15.907,0,0,0-2.758,2.042,9.385,9.385,0,0,0-3.2,5.746,21.687,21.687,0,0,1-3.652,10.231,15.084,15.084,0,0,1-5.324,4.642,18.884,18.884,0,0,1-8.781,1.945,19.925,19.925,0,0,1-8.01-1.556,16.179,16.179,0,0,1-5.642-4.083,19.352,19.352,0,0,1-4.134-7.861,23.7,23.7,0,0,1-.645-8.736C37.259,60.718,35.2,60,33.5,60a6.422,6.422,0,0,0-1.719.237V55.188a16.061,16.061,0,0,0,1.705.078,17.261,17.261,0,0,0,7.061-1.387c2.22-1.026,8.579-1.769,15.122-1.769,3.539,0,10.048.229,13.875,1.769,5.488,2.207,8.6,2.446,9.69,2.446.081,0,.151,0,.209,0v-.013s.038,0,.106.008.109-.008.109-.008v.013c.058,0,.127,0,.208,0a22.261,22.261,0,0,0,6.568-1.307C68.33,45.9,42.059,43.9,25.756,42.373c2.187-.547,24.6-6.56,24.6-6.56S6.865,21.6,1.005,12.308c-3.14-4.979,1.364-2.9,9.5-.816,7.051,1.8,16.831,3.607,26.73.816,21.319-6.013,32.8-20.226,63.956-6.559s25.692,45.371,25.692,45.371a39.515,39.515,0,0,1-5.148,3.777,19.853,19.853,0,0,0,3.871.37,16.128,16.128,0,0,0,1.708-.079v5.046A6.514,6.514,0,0,0,125.6,60c-1.7,0-3.763.722-3.9,4.161a23.7,23.7,0,0,1-.646,8.736,19.342,19.342,0,0,1-4.134,7.862,16.194,16.194,0,0,1-5.642,4.083,19.938,19.938,0,0,1-8.01,1.555A18.884,18.884,0,0,1,94.484,84.448ZM87.592,58.568a42.41,42.41,0,0,0-.065,7.79c.333,3.964,1.418,9.469,4.7,13.185A12.947,12.947,0,0,0,102.4,83.8c.454,0,.925-.017,1.4-.049,4.881-.334,8.66-2.2,11.234-5.537,3.1-4.016,3.878-9.487,3.989-13.369a39.059,39.059,0,0,0-.506-7.537q-.325-.123-.652-.24c-7.078,3.523-17.4,6.222-27.56.095A19.125,19.125,0,0,0,87.592,58.568ZM55.352,54.491a41.906,41.906,0,0,0-14.781,2.817,38.73,38.73,0,0,0-.507,7.537c.111,3.882.893,9.352,3.989,13.369,2.575,3.339,6.354,5.2,11.235,5.537.474.032.946.049,1.4.049a12.944,12.944,0,0,0,10.179-4.258c3.281-3.715,4.366-9.22,4.7-13.185a42.085,42.085,0,0,0-.065-7.79,22.171,22.171,0,0,0-4.3-2.039,34.656,34.656,0,0,0-11.847-2.038h0Z" transform="translate(1082.117 103.339)" fill="#fff" opacity="0.93"/>
    <g id="Group_2" data-name="Group 2" transform="translate(1155.771 198.454)">
      <path id="Path_10" data-name="Path 10" d="M1270.065,329.266s18.337,8.957,28.924-8.211" transform="translate(-1270.065 -316.328)" fill="none" stroke="#a4a7b4" stroke-width="4"/>
      <path id="Path_11" data-name="Path 11" d="M1344.983,309.847l11.2,7.962Z" transform="translate(-1322.528 -309.847)" fill="none" stroke="#a4a7b4" stroke-width="4"/>
    </g>
  </g>
</svg>
